<mxfile host="app.diagrams.net" modified="2023-12-05T04:32:46.174Z" agent="Mozilla/5.0 (Windows NT 10.0; Win64; x64) AppleWebKit/537.36 (KHTML, like Gecko) Chrome/90.0.4430.72 Safari/537.36" version="22.1.5" etag="yIlcIpkmrNPsXOQ96xxm" type="github">
  <diagram name="第 1 页" id="LuWtgsvEzgEGH6syGcY6">
    <mxGraphModel>
      <root>
        <mxCell id="0" />
        <mxCell id="1" parent="0" />
      </root>
    </mxGraphModel>
  </diagram>
</mxfile>
